<?xml version="1.0" standalone="no"?>
<!DOCTYPE svg PUBLIC "-//W3C//DTD SVG 20010904//EN"
 "http://www.w3.org/TR/2001/REC-SVG-20010904/DTD/svg10.dtd">
<svg version="1.0" xmlns="http://www.w3.org/2000/svg"
 width="700.000000pt" height="700.000000pt" viewBox="0 0 700.000000 700.000000"
 preserveAspectRatio="xMidYMid meet">
<metadata>
Created by potrace 1.14, written by Peter Selinger 2001-2017
</metadata>
<g transform="translate(0.000000,700.000000) scale(0.100000,-0.100000)"
fill="#000000" stroke="none">
<path d="M5 3501 l0 -3500 1815 4 c998 2 2572 4 3498 4 l1682 1 0 3495 0 3495
-3498 0 -3497 0 0 -3499z m3168 2341 c-10 -10 -20 -14 -22 -9 -2 5 3 13 10 18
24 15 30 10 12 -9z m64 -2 c3 -10 2 -11 -4 -4 -4 6 -15 14 -23 17 -11 5 -9 6
4 4 11 -1 21 -9 23 -17z m-179 -32 c7 -7 12 -19 11 -27 0 -10 -4 -7 -9 7 -10
23 -25 27 -56 15 -29 -11 -495 -404 -586 -494 -32 -31 -58 -53 -58 -50 0 13
122 124 348 315 300 254 318 266 350 234z m89 -75 c-2 -16 -4 -3 -4 27 0 30 2
43 4 28 2 -16 2 -40 0 -55z m100 -60 c-2 -27 -3 -5 -3 47 0 52 1 74 3 48 2
-27 2 -69 0 -95z m-207 32 c-13 -14 -25 -23 -28 -21 -5 6 31 44 42 45 5 1 -1
-10 -14 -24z m-75 -63 c-88 -80 -101 -91 -402 -345 -18 -16 -33 -24 -33 -18 0
6 3 11 8 11 4 0 108 88 232 194 124 107 227 195 230 195 3 0 -13 -16 -35 -37z
m172 -244 c-1 -51 -3 -10 -3 92 0 102 2 143 3 93 2 -51 2 -135 0 -185z m110
180 c-3 -8 -6 -5 -6 6 -1 11 2 17 5 13 3 -3 4 -12 1 -19z m0 -215 c-2 -32 -3
-6 -3 57 0 63 1 89 3 58 2 -32 2 -84 0 -115z m201 3 c37 -19 107 -76 94 -76
-6 0 -14 5 -18 11 -25 41 -154 89 -154 57 0 -6 -3 -9 -6 -5 -11 11 7 27 32 27
14 0 37 -6 52 -14z m-2 -138 c27 -26 63 -54 79 -62 19 -10 24 -16 13 -16 -31
0 -178 144 -178 174 0 6 9 -2 19 -19 10 -16 41 -51 67 -77z m-223 -17 c-10 -9
-12 -10 -5 -1 6 7 13 30 14 50 l1 35 4 -34 c3 -24 -1 -39 -14 -50z m-43 -8
c17 -9 20 -13 8 -13 -27 0 -48 29 -47 63 l2 32 6 -35 c4 -23 14 -39 31 -47z
m404 46 c25 -42 16 -44 -11 -3 -12 19 -19 34 -15 34 4 0 16 -14 26 -31z
m-1094 -10 c-51 -44 -78 -53 -106 -34 -13 8 -24 20 -24 25 0 6 9 1 21 -11 24
-24 49 -19 99 22 47 38 54 36 10 -2z m1100 -74 c-7 -8 -18 -15 -24 -15 -6 0
-3 5 7 11 9 5 17 18 18 27 0 11 2 12 6 4 3 -7 -1 -19 -7 -27z m-1209 -394 c16
-16 29 -38 29 -48 -1 -11 -6 -6 -15 14 -37 85 -155 61 -155 -32 0 -25 8 -44
25 -60 13 -14 20 -25 15 -25 -19 0 -50 54 -50 87 0 46 45 93 90 93 22 0 41 -9
61 -29z m-243 2 c-36 -6 -93 -70 -129 -147 -16 -33 -29 -55 -29 -48 0 25 52
115 92 158 30 32 48 44 67 43 l26 -2 -27 -4z m52 -49 c0 -11 -12 -36 -26 -55
-14 -19 -39 -61 -55 -94 -16 -33 -29 -54 -29 -47 0 18 37 89 73 139 24 34 28
48 23 75 -4 23 -3 29 4 18 5 -8 10 -24 10 -36z m1827 -21 c-20 -2 -52 -2 -70
0 -17 2 0 4 38 4 39 0 53 -2 32 -4z m-1624 -51 c-11 -14 -25 -28 -32 -30 -7
-2 -1 7 13 22 14 14 26 33 27 43 0 12 2 14 6 4 3 -7 -3 -25 -14 -39z m1502 31
c-12 -11 -15 -26 -11 -47 4 -28 4 -29 -6 -8 -12 25 3 72 22 72 7 0 4 -7 -5
-17z m308 10 c-18 -2 -48 -2 -65 0 -18 2 -4 4 32 4 36 0 50 -2 33 -4z m75 -15
c16 -16 14 -56 -4 -93 -8 -16 -12 -21 -8 -10 3 11 8 37 11 57 5 33 2 39 -18
47 -14 6 -17 10 -8 10 8 1 20 -4 27 -11z m-1945 -65 c-7 -2 -19 -2 -25 0 -7 3
-2 5 12 5 14 0 19 -2 13 -5z m1704 -20 c-20 -2 -52 -2 -70 0 -17 2 0 4 38 4
39 0 53 -2 32 -4z m113 -17 c0 -17 -42 -118 -47 -113 -2 2 6 25 17 51 24 58
25 63 3 69 -14 4 -12 5 5 6 12 1 22 -5 22 -13z m-2173 -48 c-3 -7 -5 -2 -5 12
0 14 2 19 5 13 2 -7 2 -19 0 -25z m2274 -5 c-12 -20 -14 -14 -5 12 4 9 9 14
11 11 3 -2 0 -13 -6 -23z m-2284 -60 c-3 -10 -5 -2 -5 17 0 19 2 27 5 18 2
-10 2 -26 0 -35z m2252 -22 c-12 -28 -24 -50 -26 -48 -2 2 6 27 18 56 12 28
24 50 26 48 2 -2 -6 -27 -18 -56z m-2142 12 c-3 -10 -5 -4 -5 12 0 17 2 24 5
18 2 -7 2 -21 0 -30z m2009 -40 c-8 -15 -15 -25 -16 -21 0 12 23 58 27 54 3
-2 -2 -17 -11 -33z m-2129 -20 c-3 -10 -5 -2 -5 17 0 19 2 27 5 18 2 -10 2
-26 0 -35z m110 5 c-3 -8 -6 -5 -6 6 -1 11 2 17 5 13 3 -3 4 -12 1 -19z m49
-126 c10 -14 28 -38 41 -52 41 -43 42 -97 2 -107 -8 -3 -7 0 4 7 27 17 20 54
-19 102 -41 48 -74 113 -73 143 0 11 6 1 14 -23 7 -23 21 -55 31 -70z m1945
81 c-12 -20 -14 -14 -5 12 4 9 9 14 11 11 3 -2 0 -13 -6 -23z m115 -10 c-8
-15 -15 -25 -16 -21 0 12 23 58 27 54 3 -2 -2 -17 -11 -33z m-2209 -5 c-3 -7
-5 -2 -5 12 0 14 2 19 5 13 2 -7 2 -19 0 -25z m1546 -5 c-7 -2 -19 -2 -25 0
-7 3 -2 5 12 5 14 0 19 -2 13 -5z m-44 -7 c-10 -9 -69 -36 -69 -32 0 7 52 35
64 36 5 0 7 -2 5 -4z m95 -8 c25 -11 62 -55 53 -64 -2 -2 -9 7 -16 20 -7 13
-27 30 -44 39 -37 18 -30 23 7 5z m461 -58 c-13 -36 -24 -60 -24 -53 -1 16 40
126 44 121 2 -2 -7 -33 -20 -68z m-2025 -9 c-1 -13 -29 45 -29 59 0 8 6 0 14
-19 8 -18 15 -36 15 -40z m699 47 c48 -29 121 -87 121 -97 0 -5 -15 6 -34 24
-19 18 -56 45 -81 60 -39 23 -51 25 -71 16 -40 -18 -31 -53 24 -100 54 -47
105 -74 130 -69 9 2 22 14 29 28 8 16 13 19 13 9 0 -28 -36 -52 -66 -45 -58
15 -164 107 -164 142 0 21 33 54 54 54 5 0 25 -10 45 -22z m1442 -35 c-11 -21
-20 -35 -21 -31 0 12 33 78 38 74 2 -2 -6 -21 -17 -43z m-748 2 c-3 -9 -8 -14
-10 -11 -3 3 -2 9 2 15 9 16 15 13 8 -4z m-1345 -85 c12 -15 22 -32 22 -36 -1
-13 -38 36 -55 71 -9 17 -10 22 -3 11 7 -10 23 -31 36 -46z m1329 23 c-3 -10
-5 -4 -5 12 0 17 2 24 5 18 2 -7 2 -21 0 -30z m250 0 c-3 -10 -5 -4 -5 12 0
17 2 24 5 18 2 -7 2 -21 0 -30z m483 -15 c-22 -40 -42 -58 -70 -58 -32 0 -50
17 -49 45 1 17 2 16 8 -5 6 -20 13 -25 41 -25 30 0 38 5 55 37 11 20 21 35 23
33 2 -2 -2 -14 -8 -27z m-691 -63 c9 -12 4 -8 -11 7 -16 16 -28 34 -28 41 0 6
6 3 12 -8 6 -11 18 -29 27 -40z m168 -2 c-20 -18 -42 -33 -48 -33 -7 0 3 10
22 23 19 12 38 33 44 45 5 12 12 17 14 10 2 -6 -12 -26 -32 -45z m-1468 -12
c-6 -2 -18 4 -27 13 -15 15 -15 15 10 4 15 -7 23 -15 17 -17z m1400 -27 c10
-9 -45 -3 -59 6 -11 7 -5 8 20 4 19 -4 37 -8 39 -10z m-1041 -346 c7 -7 11
-23 11 -37 -1 -24 -2 -24 -8 4 -7 33 -41 46 -67 25 -9 -8 -14 -9 -14 -2 0 22
59 29 78 10z m-81 -120 c-2 -18 -4 -6 -4 27 0 33 2 48 4 33 2 -15 2 -42 0 -60z
m100 -320 c-1 -68 -3 -13 -3 122 0 135 2 190 3 123 2 -68 2 -178 0 -245z
m1629 261 c-14 -11 -26 -29 -26 -40 0 -11 29 -46 68 -81 37 -35 104 -100 150
-146 46 -46 93 -87 105 -92 18 -7 18 -9 4 -9 -10 -1 -57 38 -105 87 -48 48
-120 117 -160 153 -42 39 -72 74 -72 86 0 21 34 63 52 63 6 0 -1 -9 -16 -21z
m120 -45 c41 -30 102 -81 137 -112 34 -31 66 -61 72 -65 5 -4 19 -15 30 -23
19 -14 19 -14 -5 -3 -14 7 -55 40 -92 75 -37 34 -103 90 -148 123 -46 34 -79
61 -75 61 4 0 41 -25 81 -56z m-771 -79 c-5 -2 -22 -6 -37 -9 -38 -9 -88 -54
-88 -80 0 -27 17 -46 45 -47 17 -1 18 -2 2 -6 -24 -6 -57 24 -57 52 0 37 74
95 120 94 14 0 21 -2 15 -4z m98 -2 c-7 -2 -21 -2 -30 0 -10 3 -4 5 12 5 17 0
24 -2 18 -5z m218 -8 c-18 -8 -36 -15 -40 -15 -13 1 45 29 59 29 8 0 0 -6 -19
-14z m87 3 c48 -48 -62 -140 -165 -137 l-48 2 55 6 c86 10 160 55 160 97 0 13
-8 28 -17 33 -10 6 -13 11 -7 11 5 0 15 -5 22 -12z m-255 -5 c-7 -2 -19 -2
-25 0 -7 3 -2 5 12 5 14 0 19 -2 13 -5z m44 -9 c-3 -3 -12 -4 -19 -1 -8 3 -5
6 6 6 11 1 17 -2 13 -5z m61 -11 c-10 -2 -26 -2 -35 0 -10 3 -2 5 17 5 19 0
27 -2 18 -5z m-268 -88 c-14 -8 -29 -14 -35 -14 -5 0 1 6 15 14 14 8 30 14 35
14 6 0 -1 -6 -15 -14z m113 8 c-7 -2 -19 -2 -25 0 -7 3 -2 5 12 5 14 0 19 -2
13 -5z m67 -13 c20 -6 21 -8 5 -8 -11 0 -29 3 -40 8 -25 11 1 11 35 0z m-955
-23 c38 -22 85 -61 85 -69 0 -5 -12 3 -27 17 -16 15 -41 33 -56 41 -26 14 -31
14 -53 -1 -13 -8 -24 -25 -24 -36 0 -21 61 -84 123 -126 43 -30 50 -43 8 -16
-56 35 -141 121 -141 141 0 11 12 30 26 41 31 24 32 24 59 8z m-288 -104 c-2
-21 -4 -4 -4 37 0 41 2 58 4 38 2 -21 2 -55 0 -75z m2108 80 c-7 -31 -32 -63
-49 -63 -6 0 -1 7 11 15 12 8 24 29 28 45 4 17 9 30 12 30 3 0 2 -12 -2 -27z
m-1665 -137 c0 -6 -9 3 -19 20 -11 18 -24 35 -30 38 -6 4 -11 12 -11 18 0 6
14 -6 30 -27 17 -21 30 -43 30 -49z m-360 -11 c-22 -27 -80 -13 -80 19 0 5 6
2 13 -8 19 -26 61 -18 66 14 3 19 5 21 9 7 2 -10 -2 -24 -8 -32z m350 -30 c-7
-8 -22 -14 -34 -14 -19 2 -19 2 2 6 13 3 26 11 29 19 3 8 8 13 11 10 3 -3 -1
-12 -8 -21z m-172 -462 c-10 -2 -18 -9 -18 -15 0 -6 -3 -9 -6 -5 -10 10 6 27
24 26 15 -1 15 -2 0 -6z m82 -8 c32 -18 25 -18 -25 0 -22 8 -31 14 -20 14 11
0 31 -6 45 -14z m477 9 c-4 -4 -17 -12 -29 -18 -16 -8 -25 -24 -29 -51 l-6
-40 -1 35 c-2 42 6 56 38 69 31 12 35 13 27 5z m756 -1 c-13 -2 -35 -2 -50 0
-16 2 -5 4 22 4 28 0 40 -2 28 -4z m-1523 -14 c-13 -6 -28 -15 -32 -22 -6 -9
-8 -9 -8 0 0 14 29 33 50 32 8 0 4 -5 -10 -10z m1410 -7 c-20 -10 -42 -32 -52
-52 -12 -22 -18 -28 -18 -16 0 23 63 86 87 86 11 0 5 -6 -17 -18z m165 7 c11
-16 1 -19 -13 -3 -7 8 -8 14 -3 14 5 0 13 -5 16 -11z m-1517 -83 l-2 -61 -3
60 c-2 32 -9 66 -16 75 -11 13 -10 13 6 1 13 -10 17 -27 15 -75z m2192 75
c-17 -5 -27 -16 -31 -36 -6 -28 -7 -28 -8 -4 -1 30 16 49 44 48 17 -1 16 -2
-5 -8z m-1862 -49 c6 -9 12 -25 11 -36 -1 -14 -4 -10 -10 12 -5 17 -13 32 -17
32 -4 0 -18 10 -32 21 l-25 21 30 -17 c17 -10 36 -24 43 -33z m1945 -4 c12
-22 13 -26 3 -13 -9 11 -26 31 -38 44 -21 22 -21 23 -3 14 11 -6 28 -26 38
-45z m-2143 5 c0 -7 -9 -13 -21 -13 -34 0 -59 -19 -59 -45 0 -26 43 -64 95
-84 l30 -11 -30 6 c-42 8 -99 56 -103 87 -3 27 28 57 61 57 14 0 17 5 12 23
-5 17 -4 19 4 7 6 -8 11 -21 11 -27z m-233 -20 c-3 -10 -5 -4 -5 12 0 17 2 24
5 18 2 -7 2 -21 0 -30z m850 -75 c-2 -24 -4 -7 -4 37 0 44 2 63 4 43 2 -21 2
-57 0 -80z m2167 96 c9 -8 16 -21 16 -27 0 -6 -7 -1 -16 11 -20 29 -70 30 -79
1 -4 -11 -9 -18 -12 -16 -2 3 0 15 7 26 13 25 61 28 84 5z m-1404 -19 c-7 -8
-20 -15 -29 -14 -11 0 -9 3 7 9 12 5 22 15 22 21 0 7 3 9 6 6 4 -4 1 -13 -6
-22z m679 -60 c0 -5 -6 1 -14 15 -8 14 -14 30 -14 35 0 6 6 -1 14 -15 8 -14
14 -29 14 -35z m-759 36 c-45 -8 -54 -38 -13 -44 27 -4 27 -4 -4 -6 -26 -1
-33 3 -33 17 0 27 20 42 55 41 30 -2 30 -2 -5 -8z m-153 -35 c-3 -8 -18 -20
-34 -28 -24 -12 -28 -19 -27 -53 1 -34 0 -37 -9 -18 -15 34 -1 70 33 81 21 8
30 18 31 34 0 13 3 17 6 10 3 -7 3 -19 0 -26z m1052 -56 c0 -8 -9 8 -19 35
-11 28 -20 52 -19 55 2 11 38 -76 38 -90z m481 43 c-11 -17 -11 -17 -6 0 3 10
7 26 7 35 1 15 2 15 6 0 2 -10 -1 -25 -7 -35z m-2485 17 c-3 -5 -16 -10 -28
-9 -20 1 -20 2 3 9 14 4 26 8 28 9 2 1 0 -3 -3 -9z m2582 -74 c-72 -158 -264
-364 -355 -382 -29 -6 -62 15 -62 39 0 6 7 1 16 -12 21 -29 57 -24 118 18 115
79 292 321 297 406 1 17 2 17 6 3 2 -10 -7 -42 -20 -72z m-3020 -33 c-2 -21
-4 -4 -4 37 0 41 2 58 4 38 2 -21 2 -55 0 -75z m375 77 c-2 -16 -12 -35 -21
-42 -13 -10 -14 -10 -3 2 6 8 12 24 12 35 0 18 7 35 15 35 1 0 0 -13 -3 -30z
m1220 -7 c43 -39 6 -93 -64 -93 -31 0 -37 -4 -41 -25 -4 -23 -4 -23 -3 2 1 25
5 28 46 33 25 3 51 9 58 13 20 13 14 54 -10 71 -12 9 -18 16 -14 16 5 0 18 -7
28 -17z m728 -18 c0 -5 -5 -3 -10 5 -5 8 -10 20 -10 25 0 6 5 3 10 -5 5 -8 10
-19 10 -25z m583 -2 c-15 -42 -78 -129 -131 -181 -78 -77 -172 -159 -172 -150
0 4 26 28 58 55 114 96 211 209 235 276 3 9 9 17 11 17 3 0 2 -8 -1 -17z
m-565 -68 c0 -16 -2 -15 -8 5 -11 34 -11 60 0 35 5 -11 8 -29 8 -40z m-2015
38 c-7 -2 -19 -2 -25 0 -7 3 -2 5 12 5 14 0 19 -2 13 -5z m2124 -30 c-3 -10
-5 -4 -5 12 0 17 2 24 5 18 2 -7 2 -21 0 -30z m-1073 -12 c4 -5 -3 -7 -14 -4
-23 6 -26 13 -6 13 8 0 17 -4 20 -9z m-617 -148 c-2 -27 -3 -5 -3 47 0 52 1
74 3 48 2 -27 2 -69 0 -95z m1590 30 c-2 -21 -4 -6 -4 32 0 39 2 55 4 38 2
-18 2 -50 0 -70z m110 20 c-2 -16 -4 -3 -4 27 0 30 2 43 4 28 2 -16 2 -40 0
-55z m-1070 -105 c-2 -35 -3 -9 -3 57 0 66 1 94 3 63 2 -32 2 -86 0 -120z
m-1380 75 c-2 -16 -4 -3 -4 27 0 30 2 43 4 28 2 -16 2 -40 0 -55z m860 -40
c-2 -21 -4 -4 -4 37 0 41 2 58 4 38 2 -21 2 -55 0 -75z m-720 -73 c14 -11 22
-20 17 -20 -4 0 -18 10 -31 22 -19 18 -23 31 -21 72 l2 51 3 -52 c3 -42 9 -56
30 -73z m1038 100 c-11 -4 -30 -22 -43 -39 -12 -17 -31 -35 -41 -41 -11 -5 2
12 27 40 26 27 54 49 62 49 10 0 8 -3 -5 -9z m55 -14 c6 -8 10 -25 7 -38 -4
-21 -4 -20 -6 4 0 15 -9 32 -18 37 -10 6 -13 11 -7 11 6 0 17 -7 24 -14z
m1207 -33 c-3 -10 -5 -2 -5 17 0 19 2 27 5 18 2 -10 2 -26 0 -35z m-1963 15
c19 -26 20 -61 5 -89 -11 -21 -95 -79 -113 -79 -6 0 14 15 44 33 61 36 80 70
64 115 -8 22 -15 27 -40 25 -22 -2 -25 0 -14 7 23 15 38 12 54 -12z m-467 -35
c-3 -10 -5 -2 -5 17 0 19 2 27 5 18 2 -10 2 -26 0 -35z m393 34 c0 -2 -33 -25
-74 -50 -61 -39 -81 -47 -117 -46 l-44 2 50 6 c34 5 70 20 114 49 62 41 71 46
71 39z m1920 -57 c-15 -57 -21 -46 -7 14 6 27 13 44 15 38 2 -6 -2 -29 -8 -52z
m-1556 -10 c4 -25 3 -31 -4 -20 -5 8 -10 26 -10 39 0 32 6 24 14 -19z m1298
24 c-12 -8 -22 -23 -23 -32 0 -11 -2 -13 -6 -4 -6 14 24 52 41 52 6 0 0 -7
-12 -16z m70 -1 c10 -9 17 -28 17 -42 -1 -25 -2 -25 -8 4 -3 17 -16 35 -31 42
-14 7 -19 13 -11 13 8 0 23 -7 33 -17z m-1214 -34 c10 0 12 -2 4 -6 -15 -6
-62 23 -62 37 0 6 9 1 20 -10 11 -11 28 -20 38 -21z m1509 9 c-3 -7 -5 -2 -5
12 0 14 2 19 5 13 2 -7 2 -19 0 -25z m-1207 3 c-21 -40 -154 -131 -192 -131
-7 0 15 13 49 29 34 17 82 50 105 74 49 52 52 54 38 28z m-1178 -66 c1 -1 19
-12 38 -24 19 -11 31 -21 25 -21 -18 0 -68 38 -81 62 -8 13 -13 32 -13 43 0
11 6 3 14 -18 7 -21 15 -40 17 -42z m993 60 c-16 -8 -39 -14 -50 -14 -11 0 -2
6 20 14 52 17 68 17 30 0z m435 -71 c-17 -19 -76 -18 -84 2 -3 9 -6 21 -5 27
0 7 4 2 10 -11 7 -19 15 -23 41 -20 28 3 34 8 37 33 4 26 5 27 9 7 2 -13 -2
-30 -8 -38z m940 11 c-16 -47 -23 -40 -8 8 6 20 13 35 16 33 2 -3 -1 -21 -8
-41z m-399 -24 c-24 -46 -26 -72 -9 -89 28 -28 74 -5 106 53 6 11 12 15 12 8
0 -21 -61 -83 -83 -83 -25 0 -57 27 -57 49 0 21 44 122 48 111 2 -5 -6 -27
-17 -49z m-1159 -16 c24 -10 70 -21 103 -25 l60 -7 -47 -2 c-76 -2 -198 55
-198 92 0 5 9 -2 20 -15 11 -14 39 -34 62 -43z m1434 28 c-8 -15 -15 -25 -16
-21 0 12 23 58 27 54 3 -2 -2 -17 -11 -33z m-156 -10 c-11 -17 -11 -17 -6 0 3
10 6 24 7 30 0 9 2 9 5 0 3 -7 0 -20 -6 -30z m-1783 -19 c-3 -3 -12 -4 -19 -1
-8 3 -5 6 6 6 11 1 17 -2 13 -5z m-200 -10 c-3 -3 -12 -4 -19 -1 -8 3 -5 6 6
6 11 1 17 -2 13 -5z m156 -1 c-7 -2 -19 -2 -25 0 -7 3 -2 5 12 5 14 0 19 -2
13 -5z m1964 -15 c-3 -8 -6 -5 -6 6 -1 11 2 17 5 13 3 -3 4 -12 1 -19z m96
-26 c-34 -42 -72 -53 -93 -25 -12 15 -12 16 0 6 27 -25 59 -15 88 26 15 21 29
37 31 35 3 -2 -9 -21 -26 -42z m-2120 31 c-13 -2 -35 -2 -50 0 -16 2 -5 4 22
4 28 0 40 -2 28 -4z m1514 -30 c-20 -2 -52 -2 -70 0 -17 2 0 4 38 4 39 0 53
-2 32 -4z m-138 -7 c-2 -2 -24 -6 -48 -9 -29 -4 -40 -2 -30 4 13 8 88 14 78 5z
m304 -3 c-13 -2 -35 -2 -50 0 -16 2 -5 4 22 4 28 0 40 -2 28 -4z m52 -13 c3
-6 -1 -7 -9 -4 -18 7 -21 14 -7 14 6 0 13 -4 16 -10z m-448 -42 c-3 -7 -5 -2
-5 12 0 14 2 19 5 13 2 -7 2 -19 0 -25z m453 -23 c-7 -8 -20 -15 -29 -14 -11
0 -9 3 7 9 13 6 22 19 23 32 1 18 2 19 6 5 3 -10 -1 -24 -7 -32z m-409 -13
c-13 -2 -27 0 -32 5 -6 6 3 7 23 4 28 -4 29 -6 9 -9z m282 -9 c-45 -2 -122 -2
-170 0 -48 1 -11 3 82 3 94 0 133 -2 88 -3z"/>
</g>
</svg>
